<svg width="256" height="256" viewBox="0 0 256 256" fill="none" xmlns="http://www.w3.org/2000/svg">
  <defs>
    <radialGradient id="bg" cx="0" cy="0" r="1" gradientUnits="userSpaceOnUse" gradientTransform="translate(128 128) rotate(90) scale(128)">
      <stop stop-color="#1F1538"/>
      <stop offset="1" stop-color="#0E0A18"/>
    </radialGradient>
    <linearGradient id="loop1" x1="64" y1="128" x2="192" y2="128" gradientUnits="userSpaceOnUse">
      <stop stop-color="#6D38E0"/>
      <stop offset="1" stop-color="#C06BFF"/>
    </linearGradient>
    <linearGradient id="loop2" x1="192" y1="128" x2="64" y2="128" gradientUnits="userSpaceOnUse">
      <stop stop-color="#4F2CC5"/>
      <stop offset="1" stop-color="#A55AF7"/>
    </linearGradient>
  </defs>
  <rect width="256" height="256" rx="36" fill="url(#bg)"/>
  <path d="M86 87C104 69 136 69 154 87L171 104C189 122 189 154 171 172C153 190 121 190 103 172L86 155C68 137 68 105 86 87Z" stroke="url(#loop1)" stroke-width="18" stroke-linecap="round"/>
  <path d="M170 87C152 69 120 69 102 87L85 104C67 122 67 154 85 172C103 190 135 190 153 172L170 155C188 137 188 105 170 87Z" stroke="url(#loop2)" stroke-width="18" stroke-linecap="round"/>
</svg>
